<svg width="35" height="34" viewBox="0 0 35 34" fill="none" xmlns="http://www.w3.org/2000/svg">
<path d="M6.82688 23.5115L7.19614 24.9105C7.66386 26.7294 8.68548 27.6621 10.7164 27.6621H23.9726C26.016 27.6621 27.0252 26.7527 27.5052 24.9105L27.8745 23.5115H6.82688ZM6.4207 21.9142H28.293L30.6069 12.9368L29.5977 12.3888L23.9235 16.3062C23.5049 16.5861 23.2219 16.4811 22.988 16.1663L17.6461 8.51804L17.0553 8.49472L11.6641 16.2013C11.4549 16.5044 11.2087 16.5977 10.7902 16.3179L5.22677 12.4704L4.04515 12.7619L6.4207 21.9142ZM4.50056 15.2685C6.1253 15.2685 7.43 14.0211 7.43 12.4704C7.43 10.9548 6.1253 9.6956 4.50056 9.6956C2.87584 9.6956 1.55882 10.9431 1.55882 12.4704C1.55882 14.0211 2.88814 15.2685 4.50056 15.2685ZM17.3507 10.4185C18.9631 10.4185 20.2801 9.17095 20.2801 7.63195C20.2801 6.11628 18.9631 4.85712 17.3507 4.85712C15.7137 4.85712 14.409 6.10463 14.409 7.63195C14.409 9.17095 15.726 10.4185 17.3507 10.4185ZM30.1885 15.2685C31.801 15.2685 33.1303 14.0211 33.1303 12.4704C33.1303 10.9431 31.8132 9.6956 30.1885 9.6956C28.5761 9.6956 27.2591 10.9548 27.2591 12.4704C27.2591 14.0211 28.5761 15.2685 30.1885 15.2685Z" fill="white"/>
</svg>
