<svg width="20" height="20" viewBox="0 0 20 20" fill="none" xmlns="http://www.w3.org/2000/svg">
<path d="M7.21573 0.427091C7.23499 0.00328323 7.93235 -0.166235 8.1404 0.203634C9.11901 1.93739 10.7834 4.48409 12.6713 5.64378C14.5592 6.79962 17.5875 7.13096 19.5755 7.21572C19.9993 7.23499 20.165 7.93234 19.7951 8.1404C18.0613 9.11901 15.5185 10.7834 14.3588 12.6713C13.1991 14.5592 12.8716 17.5875 12.7869 19.5755C12.7676 19.9993 12.0664 20.165 11.8622 19.7951C10.8836 18.0613 9.21918 15.5185 7.32745 14.3588C5.43958 13.1991 2.41129 12.8716 0.427096 12.7869C0.0032882 12.7676 -0.166237 12.0664 0.203632 11.8622C1.93739 10.8836 4.48409 9.21918 5.64378 7.32745C6.79962 5.43958 7.13096 2.41128 7.21573 0.427091Z" fill="#262626"/>
</svg>
