<svg width="22" height="21" viewBox="0 0 22 21" fill="none" xmlns="http://www.w3.org/2000/svg">
<path fill-rule="evenodd" clip-rule="evenodd" d="M1.51239 8.69597C7.41795 5.84528 11.3559 3.96594 13.3263 3.05793C18.9521 0.465382 20.1211 0.0150295 20.883 0.000158557C21.0506 -0.00311214 21.4253 0.0429021 21.668 0.261105C21.873 0.445352 21.9294 0.694243 21.9563 0.868929C21.9833 1.04361 22.0169 1.44155 21.9902 1.75249C21.6854 5.30149 20.3662 13.914 19.6951 17.8889C19.4111 19.5709 18.852 20.1348 18.3107 20.19C17.1343 20.3099 16.2409 19.3286 15.1015 18.5011C13.3186 17.2062 12.3113 16.4001 10.5807 15.1365C8.58058 13.6762 9.87715 12.8736 11.017 11.562C11.3153 11.2187 16.4986 5.9952 16.5989 5.52135C16.6115 5.46209 16.6231 5.24118 16.5046 5.12453C16.3862 5.00789 16.2114 5.04778 16.0852 5.0795C15.9064 5.12447 13.0581 7.21029 7.54035 11.337C6.73187 11.9521 5.99958 12.2517 5.34347 12.236C4.62016 12.2187 3.2288 11.7829 2.19447 11.4104C0.925826 10.9535 -0.0824703 10.7119 0.00532971 9.93599C0.0510613 9.53182 0.553413 9.11848 1.51239 8.69597Z" fill="#262626"/>
</svg>
