<svg width="35" height="34" viewBox="0 0 35 34" fill="none" xmlns="http://www.w3.org/2000/svg">
<path d="M7.06409 9.03125C7.06409 5.80384 9.68042 3.1875 12.9078 3.1875C16.1353 3.1875 18.7516 5.80384 18.7516 9.03125C18.7516 12.2587 16.1353 14.875 12.9078 14.875C9.68042 14.875 7.06409 12.2587 7.06409 9.03125Z" fill="white"/>
<path d="M20.8766 12.2188C20.8766 9.57814 23.0172 7.4375 25.6578 7.4375C28.2984 7.4375 30.4391 9.57814 30.4391 12.2188C30.4391 14.8594 28.2984 17 25.6578 17C23.0172 17 20.8766 14.8594 20.8766 12.2188Z" fill="white"/>
<path d="M2.81409 27.0938C2.81409 21.5191 7.33321 17 12.9078 17C18.4825 17 23.0016 21.5191 23.0016 27.0938V27.0974C23.0016 27.1538 23.0011 27.2104 23.0001 27.2665C22.994 27.6327 22.7996 27.9699 22.4858 28.1589C19.6876 29.8437 16.4092 30.8125 12.9078 30.8125C9.40644 30.8125 6.12809 29.8437 3.32984 28.1589C3.01605 27.9699 2.8217 27.6327 2.81554 27.2665C2.81458 27.2091 2.81409 27.1515 2.81409 27.0938Z" fill="white"/>
<path d="M25.1264 27.0982C25.1263 27.1663 25.1257 27.2345 25.1246 27.3022C25.1165 27.782 25.0008 28.2452 24.7946 28.6619C25.0802 28.6789 25.3679 28.6875 25.6576 28.6875C27.9182 28.6875 30.0595 28.1638 31.964 27.2301C32.314 27.0586 32.5419 26.7092 32.5579 26.3198C32.5619 26.2241 32.5639 26.1279 32.5639 26.0312C32.5639 22.217 29.4718 19.125 25.6576 19.125C24.6001 19.125 23.5982 19.3627 22.7022 19.7875C24.2248 21.8253 25.1264 24.3543 25.1264 27.0938V27.0982Z" fill="white"/>
</svg>
