<svg width="14" height="14" viewBox="0 0 14 14" fill="none" xmlns="http://www.w3.org/2000/svg">
<path d="M2.15076 6.57592C2.09507 6.52329 2.02956 6.48215 1.95797 6.45484C1.88638 6.42753 1.81011 6.41459 1.73351 6.41676C1.65692 6.41892 1.5815 6.43616 1.51157 6.46747C1.44164 6.49878 1.37856 6.54356 1.32593 6.59925C1.2733 6.65494 1.23216 6.72046 1.20485 6.79205C1.17754 6.86364 1.1646 6.93991 1.16677 7.0165C1.16893 7.09309 1.18617 7.16851 1.21748 7.23844C1.24879 7.30838 1.29357 7.37146 1.34926 7.42409L6.59926 12.3824C6.70757 12.4848 6.85097 12.5419 7.00001 12.5419C7.14906 12.5419 7.29246 12.4848 7.40076 12.3824L12.6513 7.42409C12.7083 7.37181 12.7542 7.30874 12.7865 7.23855C12.8189 7.16836 12.8369 7.09244 12.8397 7.01521C12.8424 6.93798 12.8298 6.86098 12.8025 6.78867C12.7753 6.71636 12.7339 6.65019 12.6808 6.594C12.6278 6.53782 12.5641 6.49273 12.4935 6.46137C12.4228 6.43001 12.3467 6.41299 12.2694 6.41131C12.1922 6.40962 12.1153 6.42331 12.0434 6.45157C11.9715 6.47983 11.9059 6.5221 11.8504 6.57592L7.00001 11.1563L2.15076 6.57592Z" fill="#262626"/>
</svg>
